<?xml version="1.0" encoding="iso-8859-1"?>
<!-- Uploaded to: SVG Repo, www.svgrepo.com, Generator: SVG Repo Mixer Tools -->
<svg version="1.1" id="Layer_1" xmlns="http://www.w3.org/2000/svg" xmlns:xlink="http://www.w3.org/1999/xlink" 
	 viewBox="0 0 512 512" xml:space="preserve">
<circle style="fill:#88C5CC;" cx="256" cy="256" r="256"/>
<path style="fill:#F5F5F5;" d="M204,92h176c4.4,0,8,3.6,8,8v328c0,4.4-3.6,8-8,8H132c-4.4,0-8-3.6-8-8V176L204,92z"/>
<g>
	<path style="fill:#E6E6E6;" d="M196,176c4.4,0,8-3.6,8-8V92l-80,84H196z"/>
	<rect x="152" y="204" style="fill:#E6E6E6;" width="216" height="204"/>
</g>
<rect x="148" y="200" style="fill:#FFFFFF;" width="216" height="204"/>
<rect x="156" y="208" style="fill:#91D2F2;" width="200" height="152"/>
<g>
	<circle style="opacity:0.4;fill:#FFE399;enable-background:new    ;" cx="204" cy="248" r="28"/>
	<circle style="opacity:0.2;fill:#FFE399;enable-background:new    ;" cx="204" cy="248" r="36"/>
	<circle style="fill:#FFE399;" cx="204" cy="248" r="24"/>
</g>
<path style="fill:#F5F5F5;" d="M336,228c-0.136,0-0.264,0.036-0.4,0.04c-1.844-9.148-9.912-16.04-19.6-16.04
	c-11.048,0-20,8.956-20,20c0,1.652,0.256,3.232,0.632,4.764C293.908,238.04,292,240.788,292,244c0,4.416,3.584,8,8,8
	c2.408,0,32.636,0,36,0c6.628,0,12-5.372,12-12S342.628,228,336,228z"/>
<path style="fill:#E6E6E6;" d="M336,228c-0.136,0-0.264,0.036-0.4,0.04c-1.844-9.148-9.912-16.04-19.6-16.04
	c-0.64,0-1.252,0.128-1.872,0.188c8.716,0.932,15.768,7.392,17.472,15.852c0.136-0.004,0.26-0.04,0.4-0.04c6.628,0,12,5.372,12,12
	s-5.372,12-12,12c1.952,0,3.416,0,4,0c6.628,0,12-5.372,12-12S342.628,228,336,228z"/>
<path style="fill:#F5F5F5;" d="M228,244c0.136,0,0.264,0.036,0.4,0.04c1.844-9.148,9.912-16.04,19.6-16.04c11.048,0,20,8.956,20,20
	c0,1.652-0.256,3.232-0.632,4.764C270.092,254.04,272,256.788,272,260c0,4.416-3.584,8-8,8c-2.408,0-32.636,0-36,0
	c-6.628,0-12-5.372-12-12S221.372,244,228,244z"/>
<path style="fill:#E6E6E6;" d="M267.368,252.764c0.376-1.536,0.632-3.116,0.632-4.764c0-11.044-8.952-20-20-20
	c-1.352,0-2.656,0.164-3.928,0.416C253.164,230.296,260,238.348,260,248c0,1.652-0.256,3.232-0.632,4.764
	C262.092,254.04,264,256.788,264,260c0,4.416-3.584,8-8,8c4.14,0,7.292,0,8,0c4.416,0,8-3.584,8-8
	C272,256.788,270.092,254.04,267.368,252.764z"/>
<polygon style="fill:#198058;" points="208,360 260,300 296,320 336,268 356,300 356,360 "/>
<g>
	<polygon style="fill:#F5F5F5;" points="232,332 260,300 296,320 268,312 260,320 256,316 	"/>
	<polygon style="fill:#F5F5F5;" points="336,268 356,300 340,292 332,300 328,288 308,304 	"/>
</g>
</svg>